<?xml version="1.0" encoding="UTF-8" standalone="no"?>
<!-- Created with Inkscape (http://www.inkscape.org/) -->

<svg
   xmlns:dc="http://purl.org/dc/elements/1.1/"
   xmlns:cc="http://creativecommons.org/ns#"
   xmlns:rdf="http://www.w3.org/1999/02/22-rdf-syntax-ns#"
   xmlns:svg="http://www.w3.org/2000/svg"
   xmlns="http://www.w3.org/2000/svg"
   xmlns:xlink="http://www.w3.org/1999/xlink"
   xmlns:sodipodi="http://sodipodi.sourceforge.net/DTD/sodipodi-0.dtd"
   xmlns:inkscape="http://www.inkscape.org/namespaces/inkscape"
   width="500"
   height="200"
   id="svg2"
   version="1.1"
   inkscape:version="0.48.4 r9939"
   sodipodi:docname="logo.svg">
  <defs
     id="defs4">
    <inkscape:perspective
       sodipodi:type="inkscape:persp3d"
       inkscape:vp_x="0 : 526.18109 : 1"
       inkscape:vp_y="0 : 1000 : 0"
       inkscape:vp_z="744.09448 : 526.18109 : 1"
       inkscape:persp3d-origin="372.04724 : 350.78739 : 1"
       id="perspective10" />
    <clipPath
       id="clipPath3014"
       clipPathUnits="userSpaceOnUse">
      <path
         id="path3016"
         d="m 610.956,323.646 -12.519,0 0,45.036 c 0,0.03 0,0.06 0,0.09 l 12.519,0 0,-45.126 m -16.839,0 -12.69,0 0.045,0 0,44.685 c -0.008,0.16 -0.009,0.305 -0.009,0.441 l 12.653,0 c 0,-0.039 10e-4,-0.078 10e-4,-0.117 l 0,-45.009"
         inkscape:connector-curvature="0" />
    </clipPath>
    <linearGradient
       id="linearGradient3002"
       spreadMethod="pad"
       gradientTransform="matrix(-2e-6,-45.122,-45.122,2e-6,596.191,368.768)"
       gradientUnits="userSpaceOnUse"
       y2="0"
       x2="1"
       y1="0"
       x1="0">
      <stop
         id="stop3004"
         offset="0"
         style="stop-opacity:1;stop-color:#ffffff" />
      <stop
         id="stop3006"
         offset="1"
         style="stop-opacity:1;stop-color:#374a3a" />
    </linearGradient>
    <linearGradient
       id="linearGradient2980"
       spreadMethod="pad"
       gradientTransform="matrix(-149.014,-1.3e-5,-1.3e-5,149.014,610.995,368.617)"
       gradientUnits="userSpaceOnUse"
       y2="0"
       x2="1"
       y1="0"
       x1="0">
      <stop
         id="stop2982"
         offset="0"
         style="stop-opacity:1;stop-color:#7fcc28" />
      <stop
         id="stop2984"
         offset="0.5"
         style="stop-opacity:1;stop-color:#00adef" />
      <stop
         id="stop2986"
         offset="0.994505"
         style="stop-opacity:1;stop-color:#2e3192" />
      <stop
         id="stop2988"
         offset="1"
         style="stop-opacity:1;stop-color:#2e3192" />
    </linearGradient>
    <inkscape:perspective
       id="perspective2824"
       inkscape:persp3d-origin="0.5 : 0.33333333 : 1"
       inkscape:vp_z="1 : 0.5 : 1"
       inkscape:vp_y="0 : 1000 : 0"
       inkscape:vp_x="0 : 0.5 : 1"
       sodipodi:type="inkscape:persp3d" />
    <linearGradient
       inkscape:collect="always"
       xlink:href="#linearGradient3002"
       id="linearGradient3365"
       gradientUnits="userSpaceOnUse"
       gradientTransform="matrix(-2e-6,-45.122,-45.122,2e-6,596.191,368.768)"
       spreadMethod="pad"
       x1="0"
       y1="0"
       x2="1"
       y2="0" />
    <linearGradient
       inkscape:collect="always"
       xlink:href="#linearGradient2980"
       id="linearGradient3370"
       gradientUnits="userSpaceOnUse"
       gradientTransform="matrix(-149.014,-1.3e-5,-1.3e-5,149.014,610.995,368.617)"
       spreadMethod="pad"
       x1="0"
       y1="0"
       x2="1"
       y2="0" />
    <inkscape:perspective
       id="perspective3522"
       inkscape:persp3d-origin="0.5 : 0.33333333 : 1"
       inkscape:vp_z="1 : 0.5 : 1"
       inkscape:vp_y="0 : 1000 : 0"
       inkscape:vp_x="0 : 0.5 : 1"
       sodipodi:type="inkscape:persp3d" />
    <linearGradient
       inkscape:collect="always"
       xlink:href="#linearGradient3010"
       id="linearGradient3470"
       gradientUnits="userSpaceOnUse"
       gradientTransform="matrix(-198.68457,-1.53e-5,-1.53e-5,198.68457,853.38379,440.61426)"
       spreadMethod="pad"
       x1="0"
       y1="0"
       x2="1"
       y2="0" />
    <linearGradient
       id="linearGradient3010"
       spreadMethod="pad"
       gradientTransform="matrix(-198.68457,-1.53e-5,-1.53e-5,198.68457,853.38379,440.61426)"
       gradientUnits="userSpaceOnUse"
       y2="0"
       x2="1"
       y1="0"
       x1="0">
      <stop
         id="stop3012"
         offset="0"
         style="stop-opacity:1;stop-color:#80cc28" />
      <stop
         id="stop3014"
         offset="0.5"
         style="stop-opacity:1;stop-color:#00adef" />
      <stop
         id="stop3016"
         offset="0.994507"
         style="stop-opacity:1;stop-color:#2e3192" />
      <stop
         id="stop3018"
         offset="1"
         style="stop-opacity:1;stop-color:#2e3192" />
    </linearGradient>
    <clipPath
       id="clipPath3050"
       clipPathUnits="userSpaceOnUse">
      <path
         id="path3052-1"
         d="m 813.965,440.814 39.363,0 0,-60.163 -39.363,0 0,60.163 z"
         inkscape:connector-curvature="0" />
    </clipPath>
    <linearGradient
       inkscape:collect="always"
       xlink:href="#linearGradient3058"
       id="linearGradient3459"
       gradientUnits="userSpaceOnUse"
       gradientTransform="matrix(0,-60.163574,-60.163574,0,833.64648,440.81445)"
       spreadMethod="pad"
       x1="0"
       y1="0"
       x2="1"
       y2="0" />
    <linearGradient
       id="linearGradient3058"
       spreadMethod="pad"
       gradientTransform="matrix(0,-60.163574,-60.163574,0,833.64648,440.81445)"
       gradientUnits="userSpaceOnUse"
       y2="0"
       x2="1"
       y1="0"
       x1="0">
      <stop
         id="stop3060"
         offset="0"
         style="stop-color:#ffffff;stop-opacity:0;" />
      <stop
         id="stop3062"
         offset="1"
         style="stop-opacity:1;stop-color:#231f20" />
    </linearGradient>
    <linearGradient
       inkscape:collect="always"
       xlink:href="#linearGradient3010"
       id="linearGradient4308"
       gradientUnits="userSpaceOnUse"
       gradientTransform="matrix(-198.68457,-1.53e-5,-1.53e-5,198.68457,853.38379,440.61426)"
       spreadMethod="pad"
       x1="0"
       y1="0"
       x2="1"
       y2="0" />
    <linearGradient
       inkscape:collect="always"
       xlink:href="#linearGradient3058"
       id="linearGradient4310"
       gradientUnits="userSpaceOnUse"
       gradientTransform="matrix(0,-60.163574,-60.163574,0,833.64648,440.81445)"
       spreadMethod="pad"
       x1="0"
       y1="0"
       x2="1"
       y2="0" />
    <linearGradient
       inkscape:collect="always"
       xlink:href="#linearGradient3010"
       id="linearGradient3056"
       gradientUnits="userSpaceOnUse"
       gradientTransform="matrix(-198.68457,-1.53e-5,-1.53e-5,198.68457,853.38379,440.61426)"
       spreadMethod="pad"
       x1="0"
       y1="0"
       x2="1"
       y2="0" />
    <linearGradient
       inkscape:collect="always"
       xlink:href="#linearGradient3058"
       id="linearGradient3059"
       gradientUnits="userSpaceOnUse"
       gradientTransform="matrix(0,-60.163574,-60.163574,0,833.64648,440.81445)"
       spreadMethod="pad"
       x1="0"
       y1="0"
       x2="1"
       y2="0" />
  </defs>
  <sodipodi:namedview
     id="base"
     pagecolor="#ffffff"
     bordercolor="#666666"
     borderopacity="1.0"
     inkscape:pageopacity="0.0"
     inkscape:pageshadow="2"
     inkscape:zoom="0.49497475"
     inkscape:cx="283.37979"
     inkscape:cy="379.63202"
     inkscape:document-units="px"
     inkscape:current-layer="layer1"
     showgrid="false"
     inkscape:window-width="1920"
     inkscape:window-height="1017"
     inkscape:window-x="-8"
     inkscape:window-y="-8"
     inkscape:window-maximized="1" />
  <metadata
     id="metadata7">
    <rdf:RDF>
      <cc:Work
         rdf:about="">
        <dc:format>image/svg+xml</dc:format>
        <dc:type
           rdf:resource="http://purl.org/dc/dcmitype/StillImage" />
        <dc:title />
      </cc:Work>
    </rdf:RDF>
  </metadata>
  <g
     inkscape:label="Calque 1"
     inkscape:groupmode="layer"
     id="layer1"
     transform="translate(0,-852.36218)">
    <g
       id="g3041"
       transform="translate(-1.758269,6.1889908)">
      <g
         transform="translate(-380.11726,428.47649)"
         id="g4287">
        <g
           transform="matrix(0.74996938,0,0,0.74996938,345.84526,131.79373)"
           id="g3502">
          <g
             transform="matrix(1.25,0,0,-1.25,-366.95774,1065.3258)"
             id="g3008">
            <path
               inkscape:connector-curvature="0"
               d="m 753.912,539.958 c -13.2,-0.035 -26.231,-2.612 -38.385,-7.744 l 0,0 c -11.839,-4.959 -22.69,-12.125 -31.828,-21.284 l 0,0 c -9.031,-9.009 -16.174,-19.678 -21.172,-31.363 l 0,0 c -5.227,-12.119 -7.79,-25.178 -7.824,-38.359 l 0,0 0,-0.012 c -0.01,-0.4 0,-0.623 0,-0.687 l 0,0 c 0.024,-13.208 2.603,-26.248 7.737,-38.406 l 0,0 c 4.951,-11.839 12.115,-22.703 21.303,-31.864 l 0,0 c 9.072,-9.1 19.922,-16.262 31.823,-21.236 l 0,0 0,-0.004 c 12.211,-5.156 25.346,-7.729 38.63,-7.729 l 0,0 0.089,0.006 99.099,-0.006 0,33.563 0,69.097 -0.056,0.137 c -0.372,12.201 -2.932,24.251 -7.775,35.513 l 0,0 c -5.006,11.694 -12.157,22.346 -21.159,31.35 l 0,0 c -9.029,9.028 -19.682,16.194 -31.409,21.203 l 0,0 c -12.107,5.219 -25.161,7.79 -38.332,7.818 l 0,0 -0.053,0 c -0.166,0.004 -0.307,0.007 -0.42,0.007 l 0,0 -0.268,0 z m 1.138,-39.428 c 7.919,-0.081 15.497,-1.647 22.453,-4.632 l 0,0 c 7.209,-3.093 13.606,-7.399 19.05,-12.852 l 0,0 c 5.422,-5.422 9.734,-11.816 12.806,-18.991 l 0,0 c 3.084,-7.177 4.652,-14.997 4.652,-23.172 l 0,0 0,-0.031 c -0.005,-0.188 -0.002,-0.396 0.007,-0.619 l 0,0 0,-59.582 -59.725,0 -0.074,0 c -8.176,0 -16.067,1.566 -23.32,4.629 l 0,0 -0.059,0.022 c -7.318,3.062 -13.824,7.388 -19.197,12.785 l 0,0 c -5.471,5.453 -9.781,11.938 -12.85,19.256 l 0,0 c -2.647,6.281 -4.181,12.956 -4.568,19.874 l 0,0 -0.091,4.584 c 0.112,7.844 1.675,15.334 4.638,22.21 l 0,0 c 3.09,7.219 7.393,13.623 12.822,19.035 l 0,0 c 5.433,5.443 11.928,9.759 19.237,12.828 l 0,0 c 6.831,2.887 14.147,4.443 21.727,4.64 l 0,0 0.701,-0.162 1.791,0.178 z"
               style="fill:url(#linearGradient3056);stroke:none"
               id="path3020" />
          </g>
          <path
             inkscape:connector-curvature="0"
             d="m 575.88526,610.7958 c -12.9175,0 -25.5825,-2.4925 -37.30875,-7.44125 -11.58125,-4.835 -22.04625,-11.76125 -30.78875,-20.535 -8.80375,-8.76875 -15.71125,-19.22625 -20.55125,-30.77875 -4.965,-11.7675 -7.45625,-24.42125 -7.45625,-37.335 0,-0.015 -0.005,-0.0575 0,-0.13625 l 0,-0.09 c 0,-12.9025 2.4875,-25.52625 7.515,-37.2 4.86,-11.35375 11.7575,-21.64375 20.48125,-30.34625 8.76125,-8.7775 19.21125,-15.695 30.76125,-20.53875 11.7575,-4.96625 24.41375,-7.4575 37.3275,-7.4575 0.0163,0 0.0625,-0.004 0.12625,0 l 0.10125,0 c 12.90125,0 25.53125,2.49125 37.19875,7.51125 11.37875,4.87125 21.6525,11.78125 30.37125,20.49625 8.68,8.6875 15.59375,18.96125 20.46125,30.335 5.0225,11.68 7.51625,24.31375 7.5125,37.22 l 0,0.008 0.004,0.0275 0,74.985 7.2025,0 0,-74.9775 0,-0.09 c 0,-13.8975 -2.68375,-27.485 -8.07875,-40.03125 l 0.91875,-0.39 -0.91875,0.39 c -5.23375,-12.2425 -12.675,-23.2925 -22.0075,-32.6325 -9.37875,-9.37125 -20.42125,-16.8 -32.6725,-22.0475 -12.53875,-5.39 -26.10875,-8.07375 -40,-8.0775 -0.0425,0 -0.0588,0.004 -0.0588,0.004 l -0.0338,0.004 -0.0475,-0.004 c -0.0238,0 -0.0463,-0.004 -0.0625,-0.004 -0.0125,0 -0.02,0 -0.0263,0.004 -13.9025,0 -27.51625,2.68 -40.16875,8.02 -12.43375,5.215 -23.665,12.65125 -33.0825,22.09 -9.37875,9.3625 -16.8,20.4175 -22.03125,32.64375 -5.39375,12.54375 -8.0775,26.1175 -8.0825,40.00375 0,0.04 0.005,0.0675 0.005,0.14125 -0.005,0.0388 -0.005,0.0663 -0.005,0.085 0,13.91125 2.68875,27.52 8.02375,40.17375 5.21125,12.44125 12.64,23.67375 22.10625,33.105 9.38625,9.42125 20.64375,16.875 33.1175,22.0775 12.60125,5.32 26.2175,8.0075 40.12125,8.0075 l 123.9125,0 0,-7.21875 -123.88625,0 z"
             style="fill:#ffffff;fill-opacity:1;fill-rule:nonzero;stroke:none"
             id="path3044-1" />
          <g
             transform="matrix(1.25,0,0,-1.25,-366.95774,1065.3258)"
             id="g3064">
            <g
               style="opacity:0.75"
               clip-path="url(#clipPath3050)"
               id="g3066">
              <g
                 id="g3068">
                <g
                   id="g3070">
                  <g
                     id="g3072">
                    <g
                       id="g3074">
                      <path
                         inkscape:connector-curvature="0"
                         d="m 813.965,440.814 39.363,0 0,-60.163 -39.363,0 0,60.163 z"
                         style="fill:url(#linearGradient3059);stroke:none"
                         id="path3076-7" />
                    </g>
                  </g>
                </g>
              </g>
            </g>
          </g>
        </g>
      </g>
      <path
         inkscape:connector-curvature="0"
         d="m 57.34577,941.81757 c 1.705,-3.24 2.56,-6.80875 2.56,-10.71125 l 0,-4.6 -9.30125,0 0,4.6 c 0,1.95 -0.365,3.7975 -1.09625,5.53875 -0.7325,1.7425 -1.7425,3.2575 -3.03125,4.545 -1.29125,1.29125 -2.78875,2.3 -4.495,3.0325 -1.7075,0.73 -3.5375,1.09625 -5.48625,1.09625 l -14.21375,0 0,-37.62375 -9.30125,0 0,65.73625 9.30125,0 0,-18.81125 14.21375,0 c 1.94875,0 3.77875,0.365 5.48625,1.0975 1.70625,0.73125 3.20375,1.7425 4.495,3.03125 1.28875,1.28875 2.29875,2.78875 3.03125,4.4925 0.73125,1.71 1.09625,3.5375 1.09625,5.4875 l 0,4.7025 9.30125,0 0,-4.7025 c 0,-3.83125 -0.855,-7.385 -2.56,-10.66 -1.7075,-3.27375 -4.02375,-5.99125 -6.95,-8.15125 2.92625,-2.15875 5.2425,-4.86 6.95,-8.1 z m 222.13,-15.31125 0,9.30125 -28.3225,0 c -1.3225,0 -2.43875,0.45375 -3.34375,1.35875 -0.90625,0.90625 -1.35875,2.02125 -1.35875,3.34375 0,1.325 0.4525,2.45625 1.35875,3.3975 0.905,0.94 2.02125,1.41 3.34375,1.41 l 18.8125,0 c 1.95,0 3.78,0.36625 5.4875,1.0975 1.70625,0.73125 3.2025,1.72375 4.49375,2.97875 1.2875,1.25375 2.29875,2.735 3.03,4.4425 0.73125,1.7075 1.0975,3.53625 1.0975,5.48625 0,1.95125 -0.36625,3.78 -1.0975,5.48625 -0.73125,1.70875 -1.7425,3.205 -3.03,4.49375 -1.29125,1.29 -2.7875,2.29875 -4.49375,3.03125 -1.7075,0.73125 -3.5375,1.0975 -5.4875,1.0975 l -28.2175,0 0,-9.30125 28.2175,0 c 1.3925,0 2.5425,-0.4525 3.45,-1.35875 0.90375,-0.905 1.3575,-2.055 1.3575,-3.44875 0,-1.3225 -0.45375,-2.43875 -1.3575,-3.345 -0.9075,-0.90375 -2.0575,-1.35875 -3.45,-1.35875 l -18.8125,0 c -1.95,0 -3.78,-0.365 -5.48625,-1.09625 -1.7075,-0.7325 -3.18625,-1.74125 -4.44125,-3.03125 -1.25375,-1.28875 -2.24625,-2.78625 -2.97875,-4.49375 -0.73125,-1.7075 -1.0975,-3.53625 -1.0975,-5.4875 0,-1.94875 0.36625,-3.77875 1.0975,-5.48625 0.7325,-1.7075 1.725,-3.1875 2.97875,-4.44125 1.255,-1.255 2.73375,-2.2475 4.44125,-2.97875 1.70625,-0.7325 3.53625,-1.0975 5.48625,-1.0975 l 28.3225,0 z m -47.55125,0 0,23.41 c 0,3.205 -0.61125,6.23625 -1.82875,9.0925 -1.22,2.8575 -2.91,5.36625 -5.06875,7.525 -2.16,2.16 -4.65,3.85 -7.4725,5.0675 -2.82125,1.22 -5.87125,1.83 -9.145,1.83 -3.205,0 -6.235,-0.61 -9.09125,-1.83 -2.85875,-1.2175 -5.34875,-2.9075 -7.4725,-5.0675 -2.12625,-2.15875 -3.79875,-4.6675 -5.0175,-7.525 -1.22,-2.85625 -1.82875,-5.8875 -1.82875,-9.0925 l 0,-23.41 9.3025,0 0,23.41 c 0,1.95125 0.365,3.79875 1.09625,5.53875 0.73125,1.7425 1.74125,3.2575 3.03125,4.54625 1.28875,1.29 2.78625,2.29875 4.49375,3.03 1.70625,0.7325 3.535,1.09875 5.48625,1.09875 1.95125,0 3.7975,-0.36625 5.54,-1.09875 1.74,-0.73125 3.25625,-1.74 4.545,-3.03 1.28875,-1.28875 2.3,-2.80375 3.03125,-4.54625 0.73125,-1.74 1.0975,-3.5875 1.0975,-5.53875 l 0,-23.41 9.30125,0 z m -52.35875,0 0,9.30125 -4.7025,0 c -1.95125,0 -3.78,0.36625 -5.4875,1.0975 -1.7075,0.73125 -3.205,1.7425 -4.4925,3.03 -1.29,1.29 -2.3,2.7875 -3.03125,4.49375 -0.7325,1.70875 -1.0975,3.5375 -1.0975,5.4875 l 0,23.515 -9.405,0 0,-23.515 c 0,-3.27375 0.6075,-6.3225 1.8275,-9.145 1.21875,-2.82125 2.90875,-5.29375 5.06875,-7.42 2.16,-2.12375 4.66875,-3.79625 7.525,-5.01625 2.85625,-1.2175 5.8875,-1.82875 9.0925,-1.82875 l 4.7025,0 z m -33.54625,0 0,9.30125 -4.70375,0 c -1.95,0 -3.78,0.36625 -5.48625,1.0975 -1.7075,0.73125 -3.205,1.7425 -4.49375,3.03 -1.28875,1.29 -2.3,2.7875 -3.03125,4.49375 -0.73125,1.70875 -1.09625,3.5375 -1.09625,5.4875 l 0,23.515 -9.40625,0 0,-23.515 c 0,-3.27375 0.60875,-6.3225 1.83,-9.145 1.21625,-2.82125 2.9075,-5.29375 5.0675,-7.42 2.15875,-2.12375 4.6675,-3.79625 7.525,-5.01625 2.85625,-1.2175 5.88625,-1.82875 9.09125,-1.82875 l 4.70375,0 z m -42.84875,37.62375 0,-14.21375 c 0,-1.95 -0.365,-3.77875 -1.0975,-5.4875 -0.73125,-1.70625 -1.74125,-3.20375 -3.03,-4.49375 -1.29,-1.2875 -2.7875,-2.29875 -4.49375,-3.03 -1.70875,-0.73125 -3.5375,-1.0975 -5.4875,-1.0975 -1.95125,0 -3.79875,0.36625 -5.53875,1.0975 -1.7425,0.73125 -3.25875,1.7425 -4.54625,3.03 -1.29,1.29 -2.29875,2.7875 -3.03125,4.49375 -0.73125,1.70875 -1.0975,3.5375 -1.0975,5.4875 0,1.95125 0.36625,3.79875 1.0975,5.53875 0.7325,1.7425 1.74125,3.2575 3.03125,4.54625 1.2875,1.29 2.80375,2.29875 4.54625,3.03 1.74,0.7325 3.5875,1.09875 5.53875,1.09875 l 14.10875,0 z M 89.06202,926.50632 c 3.275,0 6.32375,0.61125 9.145,1.82875 2.82125,1.22 5.29375,2.8925 7.42,5.01625 2.125,2.12625 3.79625,4.59875 5.01625,7.42 1.21875,2.8225 1.82875,5.87125 1.82875,9.145 l 0,23.515 -23.41,0 c -3.205,0 -6.23625,-0.61 -9.09125,-1.83 -2.85875,-1.2175 -5.36625,-2.9075 -7.525,-5.0675 -2.16125,-2.15875 -3.85125,-4.6675 -5.06875,-7.525 -1.22,-2.85625 -1.83,-5.8875 -1.83,-9.0925 0,-3.27375 0.61,-6.3225 1.83,-9.145 1.2175,-2.82125 2.9075,-5.29375 5.06875,-7.42 2.15875,-2.12375 4.66625,-3.79625 7.525,-5.01625 2.855,-1.2175 5.88625,-1.82875 9.09125,-1.82875"
         style="fill:#2e3192;fill-opacity:1;fill-rule:nonzero;stroke:none"
         id="path3092" />
    </g>
  </g>
</svg>
